:FULLY-SPECIFIED
:FORCE-ALL-JOINTS-BE-3DOF
:DEGREES
1835
root 6.75388 13.8578 27.7649 1059.86 52.6568 338.144
lfemur -53.2648 28.7186 1.77441
ltibia 68.9066 0 0
lfoot -6.50191 -8.45293 0
ltoes -24.8426 0 0
rfemur 3.31324 -3.76179 17.2756
rtibia 50.0712 0 0
rfoot -25.9486 -31.0681 0
rtoes -26.0307 0 0
lowerback 13.7682 4.69533 5.12128
upperback -0.284784 7.58942 4.99251
thorax -8.04636 3.61861 0.91022
lowerneck -4.21669 9.25475 2.68993
upperneck 7.76489 12.3883 -1.41439
head 3.63959 6.18508 -0.336154
lclavicle -9.62089e-14 6.24515e-15 0
lhumerus 61.8036 18.5131 108.585
lradius 10.2223 0 0
lwrist -86.7973 0 0
lhand -31.6192 41.4997 0
lfingers 7.12502 0 0
lthumb -4.88105 71.4234 0
rclavicle -9.62089e-14 6.24515e-15 0
rhumerus -71.5608 12.2279 -79.5287
rradius 125.273 0 0
rwrist -156.662 0 0
rhand -65.2966 -339.755 0
rfingers 7.12502 0 0
rthumb -37.1256 354.67 0
1836
root 6.78347 13.8534 27.7755 1059.83 52.6892 337.971
lfemur -53.4543 28.7988 1.77933
ltibia 69.1337 0 0
lfoot -6.6923 -8.46184 0
ltoes -24.9993 0 0
rfemur 3.4684 -3.81304 17.3142
rtibia 49.7931 0 0
rfoot -25.9019 -31.0422 0
rtoes -26.4382 0 0
lowerback 13.7945 4.72383 5.24618
upperback -0.311002 7.65246 4.99061
thorax -8.07236 3.64261 0.824731
lowerneck -4.07201 9.53211 2.90169
upperneck 7.68064 12.7694 -1.6505
head 3.63349 6.37275 -0.432924
lclavicle -9.7958e-14 6.14694e-15 0
lhumerus 61.8974 18.2922 108.681
lradius 10.2126 0 0
lwrist -86.8672 0 0
lhand -31.6033 41.4145 0
lfingers 7.12502 0 0
lthumb -4.86562 71.3385 0
rclavicle -9.7958e-14 6.14694e-15 0
rhumerus -71.7606 12.2015 -79.9395
rradius 125.308 0 0
rwrist -154.213 0 0
rhand -64.3777 -345.445 0
rfingers 7.12502 0 0
rthumb -36.2538 348.778 0
1837
root 6.81306 13.849 27.7861 1059.8 52.7216 337.798
lfemur -53.6438 28.879 1.78426
ltibia 69.3609 0 0
lfoot -6.8827 -8.47075 0
ltoes -25.156 0 0
rfemur 3.62356 -3.86428 17.3529
rtibia 49.5151 0 0
rfoot -25.8551 -31.0163 0
rtoes -26.8457 0 0
lowerback 13.8208 4.75234 5.37109
upperback -0.337221 7.7155 4.9887
thorax -8.09836 3.66661 0.739243
lowerneck -3.92734 9.80947 3.11345
upperneck 7.59638 13.1504 -1.8866
head 3.62739 6.56041 -0.529695
lclavicle -9.97071e-14 6.04873e-15 0
lhumerus 61.9913 18.0713 108.777
lradius 10.2029 0 0
lwrist -86.9371 0 0
lhand -31.5873 41.3292 0
lfingers 7.12502 0 0
lthumb -4.85019 71.2536 0
rclavicle -9.97071e-14 6.04873e-15 0
rhumerus -71.9604 12.1751 -80.3503
rradius 125.342 0 0
rwrist -151.763 0 0
rhand -63.4588 -351.136 0
rfingers 7.12502 0 0
rthumb -35.3821 342.887 0
1838
root 6.84265 13.8446 27.7967 1059.77 52.754 337.625
lfemur -53.8333 28.9592 1.78919
ltibia 69.588 0 0
lfoot -7.07309 -8.47966 0
ltoes -25.3126 0 0
rfemur 3.77873 -3.91552 17.3915
rtibia 49.237 0 0
rfoot -25.8083 -30.9904 0
rtoes -27.2532 0 0
lowerback 13.8471 4.78085 5.49599
upperback -0.363439 7.77854 4.9868
thorax -8.12436 3.69061 0.653754
lowerneck -3.78266 10.0868 3.32521
upperneck 7.51212 13.5315 -2.12271
head 3.62129 6.74807 -0.626465
lclavicle -1.01456e-13 5.95052e-15 0
lhumerus 62.0852 17.8504 108.873
lradius 10.1932 0 0
lwrist -87.007 0 0
lhand -31.5713 41.244 0
lfingers 7.12502 0 0
lthumb -4.83476 71.1687 0
rclavicle -1.01456e-13 5.95052e-15 0
rhumerus -72.1602 12.1487 -80.7611
rradius 125.377 0 0
rwrist -149.313 0 0
rhand -62.5399 -356.826 0
rfingers 7.12502 0 0
rthumb -34.5104 336.995 0
1839
root 6.87225 13.8403 27.8074 1059.75 52.7864 337.453
lfemur -54.0229 29.0394 1.79411
ltibia 69.8152 0 0
lfoot -7.26349 -8.48858 0
ltoes -25.4693 0 0
rfemur 3.93389 -3.96677 17.4302
rtibia 48.9589 0 0
rfoot -25.7616 -30.9646 0
rtoes -27.6607 0 0
lowerback 13.8733 4.80935 5.62089
upperback -0.389658 7.84158 4.98489
thorax -8.15037 3.71461 0.568266
lowerneck -3.63798 10.3642 3.53697
upperneck 7.42786 13.9125 -2.35882
head 3.61519 6.93573 -0.723236
lclavicle -1.03205e-13 5.85232e-15 0
lhumerus 62.1791 17.6294 108.969
lradius 10.1836 0 0
lwrist -87.0768 0 0
lhand -31.5553 41.1587 0
lfingers 7.12502 0 0
lthumb -4.81932 71.0839 0
rclavicle -1.03205e-13 5.85232e-15 0
rhumerus -72.36 12.1222 -81.1718
rradius 125.411 0 0
rwrist -146.864 0 0
rhand -61.621 -362.516 0
rfingers 7.12502 0 0
rthumb -33.6387 331.103 0
1840
root 6.90184 13.8359 27.818 1059.72 52.8188 337.28
lfemur -54.2124 29.1196 1.79904
ltibia 70.0423 0 0
lfoot -7.45388 -8.49749 0
ltoes -25.6259 0 0
rfemur 4.08906 -4.01801 17.4688
rtibia 48.6808 0 0
rfoot -25.7148 -30.9387 0
rtoes -28.0682 0 0
lowerback 13.8996 4.83786 5.74579
upperback -0.415876 7.90462 4.98299
thorax -8.17637 3.73861 0.482777
lowerneck -3.4933 10.6416 3.74873
upperneck 7.3436 14.2936 -2.59493
head 3.60909 7.12339 -0.820006
lclavicle -1.04954e-13 5.75411e-15 0
lhumerus 62.273 17.4085 109.065
lradius 10.1739 0 0
lwrist -87.1467 0 0
lhand -31.5393 41.0735 0
lfingers 7.12502 0 0
lthumb -4.80389 70.999 0
rclavicle -1.04954e-13 5.75411e-15 0
rhumerus -72.5598 12.0958 -81.5826
rradius 125.446 0 0
rwrist -144.414 0 0
rhand -60.7021 -368.206 0
rfingers 7.12502 0 0
rthumb -32.767 325.211 0
1841
root 6.93143 13.8315 27.8286 1059.69 52.8512 337.107
lfemur -54.4019 29.1998 1.80397
ltibia 70.2695 0 0
lfoot -7.64428 -8.5064 0
ltoes -25.7826 0 0
rfemur 4.24422 -4.06925 17.5075
rtibia 48.4028 0 0
rfoot -25.668 -30.9128 0
rtoes -28.4757 0 0
lowerback 13.9259 4.86637 5.8707
upperback -0.442095 7.96766 4.98108
thorax -8.20237 3.76261 0.397289
lowerneck -3.34863 10.9189 3.96049
upperneck 7.25934 14.6746 -2.83104
head 3.60299 7.31105 -0.916777
lclavicle -1.06703e-13 5.6559e-15 0
lhumerus 62.3669 17.1876 109.161
lradius 10.1642 0 0
lwrist -87.2166 0 0
lhand -31.5233 40.9882 0
lfingers 7.12502 0 0
lthumb -4.78846 70.9141 0
rclavicle -1.06703e-13 5.6559e-15 0
rhumerus -72.7596 12.0694 -81.9934
rradius 125.48 0 0
rwrist -141.964 0 0
rhand -59.7832 -373.897 0
rfingers 7.12502 0 0
rthumb -31.8953 319.32 0
1842
root 6.96102 13.8271 27.8392 1059.66 52.8836 336.934
lfemur -54.5914 29.28 1.80889
ltibia 70.4966 0 0
lfoot -7.83467 -8.51531 0
ltoes -25.9393 0 0
rfemur 4.39938 -4.1205 17.5461
rtibia 48.1247 0 0
rfoot -25.6213 -30.8869 0
rtoes -28.8832 0 0
lowerback 13.9522 4.89487 5.9956
upperback -0.468313 8.0307 4.97918
thorax -8.22837 3.78661 0.3118
lowerneck -3.20395 11.1963 4.17225
upperneck 7.17509 15.0557 -3.06714
head 3.59689 7.49872 -1.01355
lclavicle -1.08452e-13 5.55769e-15 0
lhumerus 62.4607 16.9667 109.257
lradius 10.1545 0 0
lwrist -87.2865 0 0
lhand -31.5074 40.903 0
lfingers 7.12502 0 0
lthumb -4.77303 70.8292 0
rclavicle -1.08452e-13 5.55769e-15 0
rhumerus -72.9594 12.043 -82.4042
rradius 125.515 0 0
rwrist -139.515 0 0
rhand -58.8643 -379.587 0
rfingers 7.12502 0 0
rthumb -31.0235 313.428 0
